<?xml version="1.0" encoding="UTF-8" standalone="no"?><svg xmlns="http://www.w3.org/2000/svg" xmlns:xlink="http://www.w3.org/1999/xlink" contentScriptType="application/ecmascript" contentStyleType="text/css" height="446px" preserveAspectRatio="none" style="width:576px;height:446px;" version="1.1" viewBox="0 0 576 446" width="576px" zoomAndPan="magnify"><defs><filter height="300%" id="f3szg9eu8tlz5" width="300%" x="-1" y="-1"><feGaussianBlur result="blurOut" stdDeviation="2.0"/><feColorMatrix in="blurOut" result="blurOut2" type="matrix" values="0 0 0 0 0 0 0 0 0 0 0 0 0 0 0 0 0 0 .4 0"/><feOffset dx="4.0" dy="4.0" in="blurOut2" result="blurOut3"/><feBlend in="SourceGraphic" in2="blurOut3" mode="normal"/></filter></defs><g><ellipse cx="217" cy="20" fill="#000000" filter="url(#f3szg9eu8tlz5)" rx="10" ry="10" style="stroke: none; stroke-width: 1.0;"/><rect fill="#FEFECE" filter="url(#f3szg9eu8tlz5)" height="33.9688" rx="12.5" ry="12.5" style="stroke: #A80036; stroke-width: 1.5;" width="293" x="70.5" y="50"/><text fill="#000000" font-family="sans-serif" font-size="12" lengthAdjust="spacingAndGlyphs" textLength="273" x="80.5" y="71.1387">org.apache.ibatis.executor.Executor#query</text><rect fill="#FEFECE" filter="url(#f3szg9eu8tlz5)" height="33.9688" rx="12.5" ry="12.5" style="stroke: #A80036; stroke-width: 1.5;" width="390" x="22" y="103.9688"/><text fill="#000000" font-family="sans-serif" font-size="12" lengthAdjust="spacingAndGlyphs" textLength="370" x="32" y="125.1074">org.apache.ibatis.executor.BaseExecutor#createCacheKey</text><rect fill="#FEFECE" filter="url(#f3szg9eu8tlz5)" height="33.9688" rx="12.5" ry="12.5" style="stroke: #A80036; stroke-width: 1.5;" width="412" x="11" y="157.9375"/><text fill="#000000" font-family="sans-serif" font-size="12" lengthAdjust="spacingAndGlyphs" textLength="392" x="21" y="179.0762">list = org.apache.ibatis.cache.impl.PerpetualCache#getObject</text><polygon fill="#FEFECE" filter="url(#f3szg9eu8tlz5)" points="188.5,211.9063,245.5,211.9063,257.5,223.9063,245.5,235.9063,188.5,235.9063,176.5,223.9063,188.5,211.9063" style="stroke: #A80036; stroke-width: 1.5;"/><text fill="#000000" font-family="sans-serif" font-size="11" lengthAdjust="spacingAndGlyphs" textLength="57" x="188.5" y="227.7144">list != null</text><text fill="#000000" font-family="sans-serif" font-size="11" lengthAdjust="spacingAndGlyphs" textLength="23" x="153.5" y="221.312">true</text><text fill="#000000" font-family="sans-serif" font-size="11" lengthAdjust="spacingAndGlyphs" textLength="28" x="257.5" y="221.312">false</text><rect fill="#FEFECE" filter="url(#f3szg9eu8tlz5)" height="33.9688" rx="12.5" ry="12.5" style="stroke: #A80036; stroke-width: 1.5;" width="81" x="42.25" y="245.9063"/><text fill="#000000" font-family="sans-serif" font-size="12" lengthAdjust="spacingAndGlyphs" textLength="61" x="52.25" y="267.0449">return list</text><ellipse cx="82.75" cy="310.875" fill="#FFFFFF" filter="url(#f3szg9eu8tlz5)" rx="11" ry="11" style="stroke: #000000; stroke-width: 1.0;"/><ellipse cx="82.75" cy="310.875" fill="#000000" rx="6" ry="6" style="stroke: #7F7F7F; stroke-width: 1.0;"/><rect fill="#FEFECE" filter="url(#f3szg9eu8tlz5)" height="33.9688" rx="12.5" ry="12.5" style="stroke: #A80036; stroke-width: 1.5;" width="416" x="143.25" y="245.9063"/><text fill="#000000" font-family="sans-serif" font-size="12" lengthAdjust="spacingAndGlyphs" textLength="396" x="153.25" y="267.0449">org.apache.ibatis.executor.BaseExecutor#queryFromDatabase</text><rect fill="#FEFECE" filter="url(#f3szg9eu8tlz5)" height="33.9688" rx="12.5" ry="12.5" style="stroke: #A80036; stroke-width: 1.5;" width="376" x="163.25" y="299.875"/><text fill="#000000" font-family="sans-serif" font-size="12" lengthAdjust="spacingAndGlyphs" textLength="356" x="173.25" y="321.0137">org.apache.ibatis.cache.impl.PerpetualCache#putObject</text><rect fill="#FEFECE" filter="url(#f3szg9eu8tlz5)" height="33.9688" rx="12.5" ry="12.5" style="stroke: #A80036; stroke-width: 1.5;" width="81" x="310.75" y="353.8438"/><text fill="#000000" font-family="sans-serif" font-size="12" lengthAdjust="spacingAndGlyphs" textLength="61" x="320.75" y="374.9824">return list</text><ellipse cx="351.25" cy="418.8125" fill="#FFFFFF" filter="url(#f3szg9eu8tlz5)" rx="11" ry="11" style="stroke: #000000; stroke-width: 1.0;"/><ellipse cx="351.25" cy="418.8125" fill="#000000" rx="6" ry="6" style="stroke: #7F7F7F; stroke-width: 1.0;"/><line style="stroke: #A80036; stroke-width: 1.5;" x1="217" x2="217" y1="30" y2="50"/><polygon fill="#A80036" points="213,40,217,50,221,40,217,44" style="stroke: #A80036; stroke-width: 1.0;"/><line style="stroke: #A80036; stroke-width: 1.5;" x1="217" x2="217" y1="83.9688" y2="103.9688"/><polygon fill="#A80036" points="213,93.9688,217,103.9688,221,93.9688,217,97.9688" style="stroke: #A80036; stroke-width: 1.0;"/><line style="stroke: #A80036; stroke-width: 1.5;" x1="217" x2="217" y1="137.9375" y2="157.9375"/><polygon fill="#A80036" points="213,147.9375,217,157.9375,221,147.9375,217,151.9375" style="stroke: #A80036; stroke-width: 1.0;"/><line style="stroke: #A80036; stroke-width: 1.5;" x1="82.75" x2="82.75" y1="279.875" y2="299.875"/><polygon fill="#A80036" points="78.75,289.875,82.75,299.875,86.75,289.875,82.75,293.875" style="stroke: #A80036; stroke-width: 1.0;"/><line style="stroke: #A80036; stroke-width: 1.5;" x1="351.25" x2="351.25" y1="279.875" y2="299.875"/><polygon fill="#A80036" points="347.25,289.875,351.25,299.875,355.25,289.875,351.25,293.875" style="stroke: #A80036; stroke-width: 1.0;"/><line style="stroke: #A80036; stroke-width: 1.5;" x1="351.25" x2="351.25" y1="333.8438" y2="353.8438"/><polygon fill="#A80036" points="347.25,343.8438,351.25,353.8438,355.25,343.8438,351.25,347.8438" style="stroke: #A80036; stroke-width: 1.0;"/><line style="stroke: #A80036; stroke-width: 1.5;" x1="351.25" x2="351.25" y1="387.8125" y2="407.8125"/><polygon fill="#A80036" points="347.25,397.8125,351.25,407.8125,355.25,397.8125,351.25,401.8125" style="stroke: #A80036; stroke-width: 1.0;"/><line style="stroke: #A80036; stroke-width: 1.5;" x1="176.5" x2="82.75" y1="223.9063" y2="223.9063"/><line style="stroke: #A80036; stroke-width: 1.5;" x1="82.75" x2="82.75" y1="223.9063" y2="245.9063"/><polygon fill="#A80036" points="78.75,235.9063,82.75,245.9063,86.75,235.9063,82.75,239.9063" style="stroke: #A80036; stroke-width: 1.0;"/><line style="stroke: #A80036; stroke-width: 1.5;" x1="257.5" x2="351.25" y1="223.9063" y2="223.9063"/><line style="stroke: #A80036; stroke-width: 1.5;" x1="351.25" x2="351.25" y1="223.9063" y2="245.9063"/><polygon fill="#A80036" points="347.25,235.9063,351.25,245.9063,355.25,235.9063,351.25,239.9063" style="stroke: #A80036; stroke-width: 1.0;"/><line style="stroke: #A80036; stroke-width: 1.5;" x1="217" x2="217" y1="191.9063" y2="211.9063"/><polygon fill="#A80036" points="213,201.9063,217,211.9063,221,201.9063,217,205.9063" style="stroke: #A80036; stroke-width: 1.0;"/></g></svg>